<svg width="43" height="37" fill="none" xmlns="http://www.w3.org/2000/svg"><path d="M42.336 1.33c-.525-.642-1.312-.996-2.215-.996-.492 0-1.012.103-1.547.308L2.176 14.536C.244 15.273-.016 16.38 0 16.973c.016.594.339 1.684 2.31 2.31a.204.204 0 00.035.011l7.55 2.161 4.083 11.676c.557 1.592 1.806 2.58 3.261 2.58.918 0 1.82-.384 2.61-1.111l4.67-4.3 6.774 5.454.002.002.065.051.018.015c.753.584 1.574.892 2.377.892 1.569 0 2.818-1.16 3.182-2.957L42.9 4.308c.24-1.182.04-2.24-.565-2.978zM12.422 21.045l14.566-7.442-9.07 9.638a1.258 1.258 0 00-.306.561l-1.749 7.084-3.441-9.841zm5.722 11.701a2.42 2.42 0 01-.182.15l1.622-6.57 2.952 2.376-4.392 4.044zM40.432 3.808l-5.964 29.449c-.057.282-.24.937-.712.937-.233 0-.525-.127-.825-.357l-7.675-6.18a.016.016 0 00-.004-.003l-4.567-3.677 13.116-13.938a1.26 1.26 0 00-1.49-1.985L10.738 19.075l-7.652-2.19 36.387-13.89c.307-.117.522-.141.648-.141.077 0 .214.009.265.071.067.082.152.36.046.883z" fill="#fff"/></svg>