<svg width="76" height="78" viewBox="0 0 76 78" fill="none" xmlns="http://www.w3.org/2000/svg">
<path d="M66.2322 78.0001H9.73783C7.15884 77.9884 4.68885 76.9694 2.8652 75.1649C1.04156 73.3603 0.0118214 70.9161 0 68.3641L0 41.2127C0.0118214 38.6607 1.04156 36.2165 2.8652 34.4119C4.68885 32.6073 7.15884 31.5884 9.73783 31.5767H66.2322C68.8112 31.5884 71.2812 32.6073 73.1048 34.4119C74.9285 36.2165 75.9582 38.6607 75.97 41.2127V68.3344C75.9661 70.8916 74.9398 73.3434 73.1154 75.1543C71.2909 76.9653 68.8164 77.9884 66.2322 78.0001ZM9.73783 35.2532C8.14852 35.2532 6.6243 35.8779 5.50048 36.99C4.37667 38.1021 3.74532 39.6103 3.74532 41.183V68.3344C3.74532 69.9071 4.37667 71.4154 5.50048 72.5275C6.6243 73.6395 8.14852 74.2643 9.73783 74.2643H66.2322C67.8215 74.2643 69.3457 73.6395 70.4696 72.5275C71.5934 71.4154 72.2247 69.9071 72.2247 68.3344V41.2127C72.2149 39.643 71.5804 38.1404 70.4587 37.0304C69.337 35.9204 67.8185 35.2925 66.2322 35.2828L9.73783 35.2532Z" fill="#EB671F"/>
<path d="M9.97753 33.1035C9.86517 32.5105 7.25842 18.4493 15.3708 8.73173C20.2247 2.96493 27.7528 0 37.7978 0C46.839 0 53.8652 2.72774 58.6891 8.15357C67.2734 17.7451 65.6105 32.1769 65.5356 32.7922L61.7903 32.34C61.7903 32.2066 63.2884 18.9237 55.8427 10.5922C51.7903 6.0114 45.6929 3.70617 37.7978 3.70617C28.9363 3.70617 22.367 6.1893 18.2697 11.1185C11.2734 19.4722 13.633 32.3178 13.6554 32.4438L9.97753 33.1035Z" fill="#EB671F"/>
<path d="M38 56.6304C36.5881 56.6304 35.208 56.2161 34.034 55.4399C32.8601 54.6637 31.9451 53.5604 31.4048 52.2697C30.8645 50.9789 30.7231 49.5586 30.9986 48.1883C31.274 46.818 31.9539 45.5593 32.9523 44.5714C33.9506 43.5835 35.2226 42.9107 36.6073 42.6382C37.9921 42.3656 39.4274 42.5055 40.7318 43.0402C42.0362 43.5748 43.1511 44.4802 43.9355 45.6419C44.7199 46.8035 45.1386 48.1693 45.1386 49.5664C45.1366 51.4393 44.3839 53.2349 43.0455 54.5592C41.7072 55.8835 39.8927 56.6284 38 56.6304ZM38 46.2086C37.3289 46.2086 36.6728 46.4055 36.1148 46.7745C35.5568 47.1435 35.1219 47.6679 34.865 48.2814C34.6082 48.895 34.541 49.5701 34.6719 50.2215C34.8029 50.8728 35.126 51.4711 35.6006 51.9407C36.0752 52.4103 36.6798 52.7301 37.338 52.8597C37.9962 52.9892 38.6785 52.9227 39.2985 52.6686C39.9186 52.4144 40.4485 51.9841 40.8214 51.4319C41.1943 50.8797 41.3933 50.2305 41.3933 49.5664C41.3933 48.6759 41.0358 47.8218 40.3994 47.1921C39.763 46.5624 38.9 46.2086 38 46.2086Z" fill="#EB671F"/>
<path d="M39.8727 54.7771H36.1273V66.1476H39.8727V54.7771Z" fill="#EB671F"/>
</svg>
