<svg width="95" height="65" viewBox="0 0 95 65" fill="none" xmlns="http://www.w3.org/2000/svg">
<path d="M14.8427 34.1052L-0.00684357 41.1658L1.23316 43.7737L16.0827 36.7131L14.8427 34.1052Z" fill="#EB671F"/>
<path d="M20.7222 38.7464C18.3553 36.0568 16.6241 32.8689 15.6572 29.419L18.4814 28.7202C19.34 31.7046 20.8422 34.4645 22.8822 36.8058L20.7222 38.7464Z" fill="#EB671F"/>
<path d="M40.8207 42.9451C36.6069 42.9451 32.4877 41.6955 28.984 39.3545C25.4803 37.0134 22.7495 33.6859 21.137 29.7928C19.5244 25.8997 19.1025 21.6159 19.9245 17.483C20.7466 13.3502 22.7758 9.55388 25.7554 6.57424C28.7351 3.59461 32.5313 1.56545 36.6642 0.743374C40.7971 -0.0787052 45.0809 0.343216 48.974 1.95578C52.8671 3.56835 56.1945 6.29913 58.5356 9.80281C60.8767 13.3065 62.1263 17.4257 62.1263 21.6395C62.1202 27.2882 59.8735 32.7038 55.8793 36.6981C51.885 40.6923 46.4694 42.939 40.8207 42.9451ZM40.8207 3.22171C37.178 3.22171 33.6171 4.30189 30.5883 6.32567C27.5595 8.34945 25.1989 11.2259 23.8049 14.5913C22.4109 17.9568 22.0461 21.66 22.7568 25.2327C23.4674 28.8054 25.2216 32.0871 27.7973 34.6629C30.3731 37.2387 33.6549 38.9928 37.2276 39.7035C40.8003 40.4141 44.5035 40.0494 47.8689 38.6554C51.2343 37.2614 54.1108 34.9007 56.1346 31.8719C58.1584 28.8431 59.2386 25.2822 59.2386 21.6395C59.2324 16.7567 57.29 12.0756 53.8373 8.62292C50.3846 5.17023 45.7036 3.22782 40.8207 3.22171Z" fill="#EB671F"/>
<path d="M87.3706 39.6529C86.5391 39.6529 85.7262 39.4063 85.0347 38.9443C84.3433 38.4823 83.8044 37.8257 83.4862 37.0574C83.168 36.2891 83.0847 35.4437 83.2469 34.6282C83.4092 33.8126 83.8096 33.0634 84.3976 32.4754C84.9856 31.8874 85.7348 31.4869 86.5504 31.3247C87.366 31.1625 88.2114 31.2457 88.9796 31.5639C89.7479 31.8822 90.4046 32.4211 90.8666 33.1125C91.3286 33.8039 91.5752 34.6168 91.5752 35.4484C91.5721 36.5626 91.1282 37.6302 90.3403 38.4181C89.5525 39.2059 88.4848 39.6499 87.3706 39.6529ZM87.3706 34.1316C87.1102 34.1316 86.8556 34.2088 86.6391 34.3535C86.4225 34.4982 86.2538 34.7039 86.1541 34.9445C86.0544 35.1851 86.0283 35.4499 86.0792 35.7053C86.13 35.9607 86.2554 36.1954 86.4395 36.3795C86.6237 36.5637 86.8583 36.6891 87.1138 36.7399C87.3692 36.7907 87.6339 36.7646 87.8746 36.665C88.1152 36.5653 88.3208 36.3965 88.4655 36.18C88.6102 35.9634 88.6874 35.7088 88.6874 35.4484C88.6859 35.0996 88.5467 34.7656 88.3001 34.519C88.0535 34.2724 87.7194 34.1331 87.3706 34.1316Z" fill="#EB671F"/>
<path d="M69.7383 39.6529C68.906 39.6563 68.0914 39.4126 67.3977 38.9527C66.704 38.4928 66.1624 37.8374 65.8415 37.0694C65.5206 36.3014 65.4349 35.4555 65.5951 34.6388C65.7554 33.8221 66.1545 33.0713 66.7418 32.4815C67.3291 31.8918 68.0782 31.4896 68.8943 31.326C69.7104 31.1623 70.5566 31.2446 71.3259 31.5623C72.0952 31.88 72.7529 32.4189 73.2156 33.1107C73.6784 33.8025 73.9254 34.6161 73.9255 35.4484C73.9239 36.56 73.4829 37.626 72.6984 38.4136C71.914 39.2013 70.8499 39.6468 69.7383 39.6529ZM69.7383 34.1316C69.4771 34.1281 69.2208 34.2024 69.002 34.345C68.7832 34.4876 68.6118 34.692 68.5094 34.9323C68.4071 35.1726 68.3785 35.4379 68.4274 35.6945C68.4762 35.951 68.6002 36.1873 68.7837 36.3732C68.9671 36.5591 69.2017 36.6862 69.4576 36.7385C69.7135 36.7907 69.9792 36.7656 70.2208 36.6665C70.4624 36.5674 70.6691 36.3986 70.8146 36.1817C70.96 35.9648 71.0377 35.7095 71.0377 35.4484C71.0378 35.1021 70.9014 34.7698 70.6582 34.5233C70.415 34.2769 70.0845 34.1361 69.7383 34.1316Z" fill="#EB671F"/>
<path d="M91.7542 64.8396C89.9523 64.8396 88.1099 62.7316 86.8682 60.9412C86.3946 60.2597 85.8055 59.8208 85.3724 59.8496C84.9392 59.8785 84.4136 60.5196 84.2173 60.9065C82.3749 64.135 79.7471 64.6779 78.3494 64.7183C77.1944 64.753 76.201 63.7769 74.3991 61.8999C73.7326 61.1517 72.9979 60.4672 72.2044 59.8554C71.7135 59.6648 71.1013 60.2828 70.9742 60.5311C70.4718 61.5418 68.6005 64.2563 66.0305 64.6837C64.2401 64.984 62.9175 63.4304 61.6354 61.923C61.0578 61.2531 59.9951 59.9998 59.5331 59.9478C58.7592 59.8727 57.6445 61.0625 56.6454 62.1252C56.0674 62.7763 55.4502 63.3916 54.7972 63.9675C54.4582 64.2979 54.0337 64.5271 53.5714 64.6291C53.1091 64.7311 52.6276 64.702 52.181 64.5451C50.4483 63.904 49.8708 61.3339 49.7668 60.56V60.3983C49.3942 51.1089 49.5754 41.8055 50.3097 32.5376C51.6496 17.7294 67.919 14.7031 72.1986 14.7031C83.478 14.7031 92.4126 21.8762 93.9373 32.1449C96.0511 46.4102 94.5611 62.2522 93.7525 63.6499C93.5639 63.9875 93.2917 64.2711 92.962 64.4733C92.6323 64.6756 92.2562 64.7898 91.8697 64.805L91.7542 64.8396ZM59.4118 57.0543C59.5446 57.0543 59.6775 57.0543 59.8161 57.0543C61.4274 57.2276 62.6403 58.6541 63.8127 60.0287C64.3325 60.6409 65.1872 61.6516 65.5915 61.8017C66.7466 61.5534 68.0461 59.867 68.3695 59.2201C69.0394 57.8802 71.0493 56.292 73.2382 57.1467C74.116 57.4875 75.0401 58.4058 76.4551 59.8727C77.0775 60.5617 77.7493 61.2045 78.4649 61.796C79.7817 61.6862 80.8618 60.895 81.6876 59.4511C82.8427 57.4528 84.2519 56.985 85.2453 56.9388C86.7123 56.8811 88.1734 57.7243 89.2419 59.249C89.8195 60.1241 90.5153 60.9151 91.3095 61.5996C91.7831 58.7119 92.5801 48.6973 91.708 38.2553C91.0721 39.7008 89.9812 40.8988 88.6014 41.6669C87.2216 42.435 85.6286 42.7311 84.065 42.51C82.5014 42.289 81.0528 41.5629 79.94 40.4424C78.8272 39.322 78.1112 37.8685 77.9009 36.3034C77.6906 34.7383 77.9976 33.1473 78.7752 31.7729C79.5527 30.3984 80.7582 29.3157 82.208 28.6898C83.6579 28.0638 85.2725 27.9289 86.8061 28.3056C88.3397 28.6822 89.7082 29.5498 90.7031 30.7761C88.6875 22.9562 81.318 17.6082 72.1928 17.6082C68.4677 17.6082 54.3237 20.1898 53.1801 32.8206C52.4597 41.9233 52.2803 51.0607 52.643 60.1846C52.7334 60.6821 52.8887 61.1656 53.105 61.6227C53.5786 61.2011 54.0464 60.6928 54.5374 60.1615C55.8773 58.7003 57.3962 57.0543 59.4118 57.0543ZM85.0778 31.0303C84.2151 31.0303 83.3719 31.2861 82.6547 31.7655C81.9375 32.2449 81.3786 32.9263 81.0487 33.7234C80.7189 34.5205 80.6329 35.3975 80.8016 36.2435C80.9703 37.0895 81.3862 37.8665 81.9966 38.476C82.607 39.0856 83.3844 39.5005 84.2307 39.6681C85.0769 39.8357 85.9538 39.7485 86.7505 39.4176C87.5472 39.0867 88.2278 38.5269 88.7062 37.809C89.1846 37.0912 89.4394 36.2476 89.4383 35.3849C89.4367 34.2295 88.9767 33.1219 88.1591 32.3054C87.3415 31.4889 86.2333 31.0303 85.0778 31.0303ZM67.3704 42.6331C65.9366 42.6342 64.5346 42.2101 63.3419 41.4144C62.1492 40.6186 61.2193 39.487 60.6698 38.1627C60.1203 36.8384 59.976 35.3808 60.255 33.9744C60.534 32.568 61.2239 31.276 62.2373 30.2618C63.2508 29.2475 64.5422 28.5566 65.9484 28.2765C67.3546 27.9963 68.8122 28.1395 70.137 28.6879C71.4618 29.2364 72.5941 30.1654 73.3908 31.3575C74.1875 32.5495 74.6127 33.9511 74.6127 35.3849C74.6112 37.3058 73.8479 39.1476 72.4902 40.5064C71.1324 41.8652 69.2912 42.63 67.3704 42.6331ZM67.3704 31.0303C66.5074 31.0291 65.6636 31.284 64.9456 31.7627C64.2277 32.2414 63.6679 32.9224 63.3372 33.7194C63.0064 34.5164 62.9196 35.3936 63.0876 36.24C63.2557 37.0863 63.6711 37.8638 64.2813 38.474C64.8914 39.0842 65.6689 39.4996 66.5153 39.6676C67.3617 39.8357 68.2389 39.7489 69.0359 39.4181C69.8329 39.0874 70.5139 38.5276 70.9926 37.8096C71.4713 37.0917 71.7262 36.2478 71.725 35.3849C71.7235 34.2305 71.2642 33.1237 70.4479 32.3074C69.6316 31.4911 68.5248 31.0318 67.3704 31.0303Z" fill="#EB671F"/>
</svg>
