<svg width="81" height="84" viewBox="0 0 81 84" fill="none" xmlns="http://www.w3.org/2000/svg">
<path d="M29.7273 26.3618H25.4165V67.3633H29.7273V26.3618Z" fill="#EB671F"/>
<path d="M27.5891 22.5883C26.1721 22.5883 24.7869 22.1694 23.6087 21.3845C22.4305 20.5996 21.5122 19.484 20.97 18.1788C20.4277 16.8736 20.2858 15.4373 20.5623 14.0517C20.8387 12.6661 21.5211 11.3934 22.523 10.3944C23.525 9.39542 24.8016 8.71512 26.1914 8.4395C27.5812 8.16389 29.0218 8.30534 30.3309 8.84598C31.6401 9.38662 32.759 10.3022 33.5463 11.4768C34.3335 12.6515 34.7537 14.0325 34.7537 15.4453C34.7514 17.339 33.9959 19.1546 32.6527 20.4936C31.3096 21.8327 29.4886 22.586 27.5891 22.5883ZM27.5891 12.6001C27.0247 12.6001 26.473 12.767 26.0037 13.0796C25.5344 13.3922 25.1686 13.8366 24.9526 14.3565C24.7366 14.8764 24.6801 15.4484 24.7902 16.0003C24.9003 16.5522 25.1721 17.0592 25.5712 17.4571C25.9703 17.855 26.4788 18.126 27.0324 18.2358C27.586 18.3456 28.1598 18.2892 28.6812 18.0739C29.2027 17.8585 29.6484 17.4939 29.962 17.026C30.2755 16.5581 30.4429 16.008 30.4429 15.4453C30.4406 14.6914 30.1392 13.969 29.6045 13.4359C29.0699 12.9028 28.3453 12.6024 27.5891 12.6001Z" fill="#EB671F"/>
<path d="M8.1819 67.3805H3.8711V59.8936C1.90538 59.9538 0.422459 59.8936 0 59.8936L0.232783 55.5958C1.28462 55.6474 2.54337 55.6645 3.8711 55.5958V45.1864L5.7851 44.9715C6.53518 44.8855 13.2169 44.2409 16.7432 47.3869C17.4315 47.9989 17.979 48.7521 18.348 49.5948C18.7171 50.4376 18.899 51.3499 18.8813 52.2692C18.8785 53.0417 18.7145 53.8051 18.3998 54.5109C18.0852 55.2168 17.6267 55.8497 17.0535 56.3694C15.0533 58.2518 11.5271 59.1544 8.1819 59.5756V67.3805ZM8.1819 49.1748V55.2605C10.7253 54.9081 13.01 54.2806 14.0877 53.2577C14.2364 53.1425 14.357 52.9954 14.4406 52.8272C14.5242 52.659 14.5686 52.4741 14.5705 52.2864C14.5957 51.9647 14.5449 51.6416 14.4221 51.343C14.2994 51.0444 14.108 50.7788 13.8635 50.5673C12.691 49.5444 10.2338 49.1834 8.1819 49.1576V49.1748Z" fill="#EB671F"/>
<path d="M41.4355 44.4644H37.1246V67.3633H41.4355V44.4644Z" fill="#EB671F"/>
<path d="M55.7215 67.6812L51.4624 67.0451C51.8072 64.7071 51.9883 57.9595 48.6776 54.908C46.7636 53.1373 43.7633 52.7075 39.7629 53.6187L38.7972 49.424C44.2806 48.1776 48.5914 48.9684 51.6176 51.762C57.2733 56.9968 55.7904 67.2514 55.7215 67.6812Z" fill="#EB671F"/>
<path d="M70.8524 67.1225C68.8611 67.1242 66.914 66.5373 65.2572 65.4359C63.6004 64.3345 62.3084 62.7681 61.5444 60.9347C60.7804 59.1013 60.5787 57.0833 60.9649 55.1357C61.3511 53.188 62.3078 51.3983 63.714 49.9927C65.1203 48.587 66.913 47.6286 68.8654 47.2386C70.8179 46.8486 72.8426 47.0445 74.6834 47.8015C76.5243 48.5585 78.0987 49.8426 79.2077 51.4916C80.3167 53.1405 80.9104 55.0802 80.9138 57.0655C80.9161 59.7291 79.8576 62.2845 77.9709 64.1703C76.0843 66.0561 73.5239 67.1179 70.8524 67.1225ZM70.8524 51.3494C69.7118 51.3477 68.5965 51.6837 67.6477 52.3147C66.6989 52.9458 65.9594 53.8435 65.5229 54.894C65.0865 55.9446 64.9727 57.1007 65.1961 58.2158C65.4194 59.3309 65.9698 60.3547 66.7775 61.1576C67.5852 61.9604 68.6138 62.5061 69.7329 62.7254C70.852 62.9448 72.0113 62.8279 73.0637 62.3896C74.1161 61.9513 75.0143 61.2113 75.6444 60.2635C76.2745 59.3157 76.6081 58.2026 76.603 57.0655C76.5961 55.5487 75.9875 54.0961 74.9101 53.0251C73.8326 51.9541 72.3738 51.3517 70.8524 51.3494Z" fill="#EB671F"/>
<path d="M66.6019 83.3339C65.0381 83.3401 63.4769 83.2049 61.9376 82.9299L62.7998 78.718C64.9293 79.1306 71.1714 79.5776 74.4131 76.8872C75.9908 75.5376 76.7323 73.5434 76.6806 70.8186C76.3961 57.5211 76.6806 43.5617 76.6806 43.4155L80.9914 43.5101C80.9914 43.6476 80.7069 57.5211 80.9914 70.7326C81.0862 74.8242 79.793 78.0218 77.1548 80.2309C74.0855 82.7494 69.835 83.3339 66.6019 83.3339Z" fill="#EB671F"/>
<path d="M43.4701 23.6972L40.6681 20.4308C43.1943 18.2733 44.4358 16.0814 44.3668 13.9153C44.2547 10.4254 40.8147 7.75215 40.7802 7.72636L43.3667 4.28809C43.5822 4.44281 48.5396 8.18193 48.6862 13.7433C48.7897 17.3106 47.0395 20.6457 43.4701 23.6972Z" fill="#EB671F"/>
<path d="M55.9025 27.6511L53.0919 24.4019C57.1268 20.9636 59.127 17.405 58.989 13.8292C58.7994 8.01853 53.2643 3.81524 53.2039 3.77226L55.7904 0.333984C56.0836 0.557472 63.0412 5.84382 63.2998 13.6831C63.4636 18.6256 60.972 23.3189 55.9025 27.6511Z" fill="#EB671F"/>
</svg>
