<svg width="18" height="19" viewBox="0 0 18 19" fill="none" xmlns="http://www.w3.org/2000/svg">
<path d="M9 14.5195C9.48541 14.5195 9.87891 14.126 9.87891 13.6406C9.87891 13.1552 9.48541 12.7617 9 12.7617C8.51459 12.7617 8.12109 13.1552 8.12109 13.6406C8.12109 14.126 8.51459 14.5195 9 14.5195Z" fill="white"/>
<path d="M9 0.333984C4.02595 0.333984 0 4.35927 0 9.33398C0 14.308 4.02528 18.334 9 18.334C13.974 18.334 18 14.3087 18 9.33398C18 4.35994 13.9747 0.333984 9 0.333984ZM9 16.9277C4.80315 16.9277 1.40625 13.5314 1.40625 9.33398C1.40625 5.13714 4.80259 1.74023 9 1.74023C13.1968 1.74023 16.5938 5.13657 16.5938 9.33398C16.5938 13.5308 13.1974 16.9277 9 16.9277Z" fill="white"/>
<path d="M9 4.85156C7.44919 4.85156 6.1875 6.11325 6.1875 7.66406C6.1875 8.0524 6.50229 8.36719 6.89062 8.36719C7.27896 8.36719 7.59375 8.0524 7.59375 7.66406C7.59375 6.88866 8.22459 6.25781 9 6.25781C9.77541 6.25781 10.4062 6.88866 10.4062 7.66406C10.4062 8.43947 9.77541 9.07031 9 9.07031C8.61166 9.07031 8.29688 9.3851 8.29688 9.77344V11.5312C8.29688 11.9196 8.61166 12.2344 9 12.2344C9.38834 12.2344 9.70312 11.9196 9.70312 11.5312V10.3876C10.9148 10.0746 11.8125 8.97219 11.8125 7.66406C11.8125 6.11325 10.5508 4.85156 9 4.85156Z" fill="white"/>
</svg>
