<svg width="60" height="60" viewBox="0 0 60 60" fill="none" xmlns="http://www.w3.org/2000/svg">
<g opacity="0.7" clip-path="url(#clip0)">
<path d="M16.5874 0.382387C16.0694 -0.117979 15.2439 -0.103554 14.7435 0.414417C14.2555 0.919796 14.2555 1.7209 14.7435 2.22615L42.5082 29.9934L14.7409 57.7581C14.223 58.2584 14.2087 59.0839 14.7089 59.602C15.2093 60.1199 16.0347 60.1342 16.5528 59.634C16.5637 59.6235 16.5743 59.6128 16.5848 59.602L45.2727 30.9141C45.7818 30.4049 45.7818 29.5795 45.2727 29.0702L16.5874 0.382387Z" fill="#F44336"/>
<path d="M15.6641 59.9853C14.944 59.9867 14.3591 59.4038 14.3578 58.6836C14.3572 58.3364 14.4951 58.0033 14.7409 57.7581L42.5082 29.9934L14.7409 2.22885C14.231 1.71895 14.231 0.892298 14.7409 0.382396C15.2508 -0.127506 16.0775 -0.127506 16.5874 0.382396L45.2753 29.0703C45.7843 29.5795 45.7843 30.4049 45.2753 30.9142L16.5874 59.6019C16.3429 59.8473 16.0106 59.9853 15.6641 59.9853Z" fill="white"/>
</g>
<defs>
<clipPath id="clip0">
<rect width="60" height="60" fill="white"/>
</clipPath>
</defs>
</svg>
