<svg width="95" height="58" viewBox="0 0 95 58" fill="none" xmlns="http://www.w3.org/2000/svg">
<path d="M70.0598 34.2005L53.2647 41.573L54.6033 44.6222L71.3983 37.2497L70.0598 34.2005Z" fill="#EB671F"/>
<path d="M95 49.499H55.6187V46.169H91.6433C91.2222 34.7438 86.3874 23.927 78.1556 15.993C69.9238 8.05896 58.9362 3.62588 47.5033 3.62588C36.0704 3.62588 25.0829 8.05896 16.851 15.993C8.61922 23.927 3.78446 34.7438 3.36336 46.169H40.6268V49.499H0V47.834C0 35.2362 5.00445 23.1544 13.9124 14.2464C22.8204 5.33843 34.9022 0.333984 47.5 0.333984C60.0978 0.333984 72.1796 5.33843 81.0876 14.2464C89.9956 23.1544 95 35.2362 95 47.834V49.499Z" fill="#EB671F"/>
<path d="M5.28343 29.6948L4.22182 32.8511L12.9522 35.7875L14.0138 32.6312L5.28343 29.6948Z" fill="#EB671F"/>
<path d="M89.3572 29.8595L81.1256 32.6282L82.1872 35.7845L90.4188 33.0158L89.3572 29.8595Z" fill="#EB671F"/>
<path d="M21.3257 12.8084L18.6617 14.8064L22.5299 19.964L25.1939 17.9659L21.3257 12.8084Z" fill="#EB671F"/>
<path d="M72.6034 10.6132L68.1598 16.5381L70.8238 18.5361L75.2675 12.6113L72.6034 10.6132Z" fill="#EB671F"/>
<path d="M49.165 1.99902H45.835V10.4374H49.165V1.99902Z" fill="#EB671F"/>
<path d="M48.1127 57.0115C46.297 57.0142 44.5213 56.4782 43.0103 55.4713C41.4993 54.4645 40.3209 53.032 39.6242 51.3553C38.9275 49.6785 38.7439 47.8328 39.0965 46.0516C39.4491 44.2704 40.3221 42.6339 41.6051 41.349C42.8881 40.0642 44.5234 39.1888 46.304 38.8336C48.0847 38.4784 49.9307 38.6593 51.6085 39.3536C53.2862 40.0478 54.7204 41.2241 55.7294 42.7337C56.7385 44.2432 57.2771 46.0182 57.2771 47.8339C57.2753 50.2651 56.3096 52.5964 54.5918 54.3168C52.8739 56.0372 50.5439 57.0063 48.1127 57.0115ZM48.1127 41.9863C46.9556 41.9837 45.8237 42.3244 44.8604 42.9653C43.897 43.6063 43.1454 44.5186 42.7008 45.5869C42.2561 46.6551 42.1384 47.8313 42.3626 48.9665C42.5867 50.1017 43.1426 51.1449 43.9598 51.964C44.7771 52.7832 45.819 53.3414 46.9537 53.5681C48.0884 53.7948 49.2648 53.6798 50.3341 53.2376C51.4034 52.7954 52.3174 52.0459 52.9606 51.084C53.6037 50.1221 53.947 48.991 53.947 47.8339C53.9452 46.2859 53.3304 44.8015 52.237 43.7057C51.1437 42.6098 49.6608 41.9916 48.1127 41.9863Z" fill="#EB671F"/>
<path d="M32.3349 47.834H29.0048C29.0063 44.5328 29.8624 41.2882 31.4898 38.416C33.1173 35.5438 35.4606 33.1419 38.2917 31.444C41.1228 29.7462 44.3453 28.8102 47.6454 28.7272C50.9456 28.6443 54.211 29.4171 57.1239 30.9705L55.5521 33.9077C53.1469 32.6239 50.4503 31.9849 47.7248 32.0531C44.9994 32.1212 42.338 32.8941 40 34.2965C37.6621 35.6989 35.7272 37.6829 34.3839 40.0553C33.0406 42.4278 32.3347 45.1077 32.3349 47.834Z" fill="#EB671F"/>
</svg>
